<?xml version="1.0" encoding="UTF-8" standalone="no"?>
<svg
   xmlns:dc="http://purl.org/dc/elements/1.1/"
   xmlns:cc="http://creativecommons.org/ns#"
   xmlns:rdf="http://www.w3.org/1999/02/22-rdf-syntax-ns#"
   xmlns:svg="http://www.w3.org/2000/svg"
   xmlns="http://www.w3.org/2000/svg"
   xmlns:sodipodi="http://sodipodi.sourceforge.net/DTD/sodipodi-0.dtd"
   xmlns:inkscape="http://www.inkscape.org/namespaces/inkscape"
   width="37.252148mm"
   height="46.80201mm"
   viewBox="0 0 37.252147 46.802009"
   version="1.1"
   id="svg8"
   inkscape:export-filename="C:\Users\ninal\Desktop\quill.png"
   inkscape:export-xdpi="96"
   inkscape:export-ydpi="96"
   inkscape:version="1.0.2 (e86c870879, 2021-01-15)"
   sodipodi:docname="quill.svg">
  <defs
     id="defs2" />
  <sodipodi:namedview
     id="base"
     pagecolor="#ffffff"
     bordercolor="#666666"
     borderopacity="1.0"
     inkscape:pageopacity="0.0"
     inkscape:pageshadow="2"
     inkscape:zoom="2"
     inkscape:cx="-13.965236"
     inkscape:cy="106.52477"
     inkscape:document-units="mm"
     inkscape:current-layer="layer1"
     inkscape:document-rotation="0"
     showgrid="false"
     inkscape:window-width="1920"
     inkscape:window-height="1017"
     inkscape:window-x="-8"
     inkscape:window-y="-8"
     inkscape:window-maximized="1" />
  <metadata
     id="metadata5">
    <rdf:RDF>
      <cc:Work
         rdf:about="">
        <dc:format>image/svg+xml</dc:format>
        <dc:type
           rdf:resource="http://purl.org/dc/dcmitype/StillImage" />
        <dc:title />
      </cc:Work>
    </rdf:RDF>
  </metadata>
  <g
     inkscape:label="Layer 1"
     inkscape:groupmode="layer"
     id="layer1"
     transform="translate(-103.01274,-37.415283)">
    <g
       id="g840"
       transform="rotate(-18.993394,123.31287,59.536895)">
      <path
         style="fill:#f3d461;fill-opacity:1;stroke:#000000;stroke-width:0.154029px;stroke-linecap:butt;stroke-linejoin:miter;stroke-opacity:1"
         d="m 102.16729,68.430497 c 0,0 0.0732,-4.857947 3.65764,-8.773629 0,0 -0.60001,3.357593 0.60995,4.583383 0,0 -0.95915,-4.033889 0.89991,-5.7773 1.85906,-1.743411 4.15151,-2.856758 4.15151,-2.856758 0,0 -2.62552,2.421901 -1.79484,5.865751 0,0 -1.08715,-6.213668 8.69267,-10.531859 0,0 -2.95586,3.273075 -2.6653,5.87931 0,0 0.93066,-6.777471 9.27308,-9.908489 0,0 -4.96477,4.637893 -4.59264,6.534242 0,0 3.57122,-11.454666 22.60701,-10.374819 0,0 -2.65786,0.550817 -4.49938,2.689808 0,0 4.61254,-2.682396 4.93524,-2.607774 0.32268,0.07462 3.40197,2.623342 1.06045,6.059476 -0.53191,0.780568 -2.10197,1.646523 -7.42932,2.989672 0,0 -2.19436,-0.852164 -3.77447,-2.421107 0,0 -0.57622,0.713879 3.15393,2.58439 0,0 -11.14459,2.47551 -14.3053,6.025588 0,0 -1.3933,-0.519131 -3.08804,-0.773881 0,0 1.35204,0.332582 2.30874,1.087179 0,0 -6.32669,3.358003 -6.98956,5.106189 0,0 -1.57767,-0.81243 -3.53237,-0.704112 0,0 -0.52813,0.780063 3.09789,1.064861 0,0 -1.10441,0.616247 -4.67346,-0.610267 0,0 1.98649,2.14865 3.97788,1.4802 0,0 -1.3198,2.395327 -5.41685,1.796035 0,0 3.6414,0.55526 3.71233,0.843543 0,0 -2.03927,0.244588 -3.7616,-0.307866 0,0 0.28478,0.704099 2.7755,1.217073 0,0 -1.7101,1.065046 -3.81855,0.633845 -2.10845,-0.431208 -1.91187,-0.594911 -3.85118,-0.380533 -0.42087,0.04653 -0.72087,-0.412151 -0.72087,-0.412151 z"
         id="path851"
         sodipodi:nodetypes="cccsccccccccsscccccccccccccccssc" />
      <path
         style="fill:#fcfa99;fill-opacity:1;stroke:#000000;stroke-width:0.154029px;stroke-linecap:butt;stroke-linejoin:miter;stroke-opacity:1"
         d="m 100.38497,70.24872 c 0,0 17.30019,-23.341806 42.71289,-23.872693 -23.10459,1.237996 -41.74427,24.673589 -41.74427,24.673589 l -0.96862,-0.800896"
         id="path849"
         sodipodi:nodetypes="cccc" />
      <path
         id="rect854"
         style="fill:#737373;fill-opacity:1;stroke:#000000;stroke-width:0.174647;stroke-miterlimit:4;stroke-dasharray:none;stroke-opacity:1"
         d="m 100.50312,69.889941 1.08095,0.897458 c 0.0288,0.02387 0.0323,0.06596 0.009,0.09499 l -2.875944,3.548968 c -0.911425,1.124745 -1.123444,0.109417 -2.36784,1.804457 -0.164491,0.224095 0.07769,-1.423993 1.183088,-2.7881 l 2.875896,-3.549005 c 0.0235,-0.02904 0.0662,-0.03268 0.095,-0.0088 z"
         sodipodi:nodetypes="ssssssss" />
      <path
         id="path858"
         style="fill:#000000;fill-opacity:1;stroke:none;stroke-width:0;stroke-miterlimit:4;stroke-dasharray:none;stroke-opacity:1"
         d="m 100.50312,69.889941 1.08095,0.897458 c 0.0288,0.02387 0.0323,0.06596 0.009,0.09499 l -0.0928,0.114551 -1.18475,-0.983643 0.0928,-0.114551 c 0.0236,-0.02903 0.0662,-0.03268 0.095,-0.0088 z"
         sodipodi:nodetypes="sssccsss" />
      <path
         id="path860"
         style="fill:#000000;fill-opacity:1;stroke:none;stroke-width:0;stroke-miterlimit:4;stroke-dasharray:none;stroke-opacity:1"
         d="m 101.32911,71.209405 -0.0928,0.114548 -1.18475,-0.98364 0.0928,-0.114549 z"
         sodipodi:nodetypes="ccccc" />
    </g>
  </g>
</svg>
