<?xml version="1.0" encoding="UTF-8" standalone="no"?>
<svg
   width="46.319927mm"
   height="47.343678mm"
   viewBox="0 0 46.319927 47.343677"
   version="1.1"
   id="svg8"
   inkscape:export-filename="favicon.png"
   inkscape:export-xdpi="96"
   inkscape:export-ydpi="96"
   inkscape:version="1.4 (86a8ad7, 2024-10-11)"
   sodipodi:docname="logo.svg"
   xmlns:inkscape="http://www.inkscape.org/namespaces/inkscape"
   xmlns:sodipodi="http://sodipodi.sourceforge.net/DTD/sodipodi-0.dtd"
   xmlns="http://www.w3.org/2000/svg"
   xmlns:svg="http://www.w3.org/2000/svg"
   xmlns:rdf="http://www.w3.org/1999/02/22-rdf-syntax-ns#"
   xmlns:cc="http://creativecommons.org/ns#"
   xmlns:dc="http://purl.org/dc/elements/1.1/">
  <defs
     id="defs2" />
  <sodipodi:namedview
     id="base"
     pagecolor="#ffffff"
     bordercolor="#666666"
     borderopacity="1.0"
     inkscape:pageopacity="0.0"
     inkscape:pageshadow="2"
     inkscape:zoom="1.9912127"
     inkscape:cx="-9.2908206"
     inkscape:cy="118.77184"
     inkscape:document-units="mm"
     inkscape:current-layer="layer1"
     inkscape:document-rotation="0"
     showgrid="false"
     inkscape:window-width="1920"
     inkscape:window-height="1017"
     inkscape:window-x="-8"
     inkscape:window-y="-8"
     inkscape:window-maximized="1"
     inkscape:showpageshadow="2"
     inkscape:pagecheckerboard="0"
     inkscape:deskcolor="#d1d1d1" />
  <metadata
     id="metadata5">
    <rdf:RDF>
      <cc:Work
         rdf:about="">
        <dc:format>image/svg+xml</dc:format>
        <dc:type
           rdf:resource="http://purl.org/dc/dcmitype/StillImage" />
        <dc:title />
      </cc:Work>
    </rdf:RDF>
  </metadata>
  <g
     inkscape:label="Layer 1"
     inkscape:groupmode="layer"
     id="layer1"
     transform="translate(-98.755738,-45.193485)">
    <path
       id="path2"
       style="fill:#201983;fill-opacity:1;stroke:#000000;stroke-width:0.46219;stroke-linecap:round;stroke-linejoin:round;stroke-opacity:1"
       d="M 121.9157,46.4477 A 22.929019,22.929019 0 0 0 98.986833,69.376563 22.929019,22.929019 0 0 0 121.9157,92.306069 22.929019,22.929019 0 0 0 144.84457,69.376563 22.929019,22.929019 0 0 0 121.9157,46.4477 Z m 0,4.727012 A 18.20183,18.20183 0 0 1 140.11755,69.376563 18.20183,18.20183 0 0 1 121.9157,87.578414 18.20183,18.20183 0 0 1 103.71385,69.376563 18.20183,18.20183 0 0 1 121.9157,51.174712 Z" />
    <path
       id="path866"
       style="fill:#000000;fill-opacity:1;stroke:#000000;stroke-width:0.409066;stroke-miterlimit:4;stroke-dasharray:none;stroke-opacity:1"
       d="m 113.91341,68.27106 c 0.16197,-0.252065 0.44129,-0.348211 0.56828,-0.247842 l 2.00009,1.580735 c 0.127,0.100371 0.0981,0.394379 -0.10982,0.610177 -4.03305,4.136247 -5.20608,2.411012 -2.45853,-1.943049 z"
       sodipodi:nodetypes="cssccc" />
    <path
       id="rect850"
       style="fill:#dfdfdf;fill-opacity:1;stroke:#000000;stroke-width:0.409067;stroke-miterlimit:4;stroke-dasharray:none;stroke-opacity:1"
       d="m 115.87838,63.919663 c -0.0723,0.09153 -0.0995,0.200052 -0.10043,0.307887 -0.73622,1.134932 -1.7174,2.360587 -1.69759,3.444012 l -1.05445,1.334195 c -0.27424,0.346985 -0.21563,0.847363 0.13135,1.121597 l 1.54235,1.218967 c 0.34699,0.274233 0.84736,0.215633 1.12159,-0.131353 l 1.00246,-1.268392 c 1.12518,-0.167279 2.0507,-1.548815 3.05008,-2.503811 0.097,-0.02823 0.1885,-0.07737 0.25634,-0.162851 4.81711,-6.069586 9.66568,-12.229905 14.48803,-18.33159 0.17286,-0.218716 0.13594,-0.533999 -0.0828,-0.706858 l -3.46206,-2.736174 c -0.21872,-0.172858 -0.534,-0.135935 -0.70686,0.08278 z"
       sodipodi:nodetypes="sccssssccscssss" />
    <path
       style="fill:none;stroke:#ffffff;stroke-width:0.525;stroke-linejoin:round;stroke-dasharray:1.575, 0.525;stroke-dashoffset:0;stroke-opacity:1"
       d="m 111.62507,72.856383 c 0,0 -12.050635,2.190698 0.79894,2.896176 12.84957,0.705478 28.09595,-0.03713 25.03336,-1.299567 -3.06259,-1.262435 -24.43416,0.111392 -11.45143,-2.970436 12.98272,-3.081827 -0.19974,-2.22783 3.86152,-4.010088 1.99511,-0.87554 3.48752,-0.899362 4.24223,-1.3668 1.21995,-0.755593 0.51054,-1.279357 -0.10578,-1.639189 -1.16902,-0.68252 -0.81418,-1.544151 -0.81418,-1.544151"
       id="path1"
       sodipodi:nodetypes="cssssssc" />
  </g>
</svg>
