<?xml version="1.0" encoding="UTF-8" standalone="no"?>
<svg
   width="31.837112mm"
   height="31.093822mm"
   viewBox="0 0 31.837112 31.093822"
   version="1.1"
   id="svg8"
   inkscape:export-filename="favicon.png"
   inkscape:export-xdpi="96"
   inkscape:export-ydpi="96"
   inkscape:version="1.4 (86a8ad7, 2024-10-11)"
   sodipodi:docname="loopIcon.svg"
   xmlns:inkscape="http://www.inkscape.org/namespaces/inkscape"
   xmlns:sodipodi="http://sodipodi.sourceforge.net/DTD/sodipodi-0.dtd"
   xmlns="http://www.w3.org/2000/svg"
   xmlns:svg="http://www.w3.org/2000/svg"
   xmlns:rdf="http://www.w3.org/1999/02/22-rdf-syntax-ns#"
   xmlns:cc="http://creativecommons.org/ns#"
   xmlns:dc="http://purl.org/dc/elements/1.1/">
  <defs
     id="defs2" />
  <sodipodi:namedview
     id="base"
     pagecolor="#ffffff"
     bordercolor="#666666"
     borderopacity="1.0"
     inkscape:pageopacity="0.0"
     inkscape:pageshadow="2"
     inkscape:zoom="1.9912127"
     inkscape:cx="62.022505"
     inkscape:cy="21.092674"
     inkscape:document-units="mm"
     inkscape:current-layer="layer1"
     inkscape:document-rotation="0"
     showgrid="false"
     inkscape:window-width="1161"
     inkscape:window-height="1008"
     inkscape:window-x="750"
     inkscape:window-y="0"
     inkscape:window-maximized="0"
     inkscape:showpageshadow="2"
     inkscape:pagecheckerboard="0"
     inkscape:deskcolor="#d1d1d1" />
  <metadata
     id="metadata5">
    <rdf:RDF>
      <cc:Work
         rdf:about="">
        <dc:format>image/svg+xml</dc:format>
        <dc:type
           rdf:resource="http://purl.org/dc/dcmitype/StillImage" />
        <dc:title />
      </cc:Work>
    </rdf:RDF>
  </metadata>
  <g
     inkscape:label="Layer 1"
     inkscape:groupmode="layer"
     id="layer1"
     transform="translate(-106.23636,-45.193485)">
    <g
       id="g4"
       transform="rotate(75,122.5849,60.739912)"
       style="stroke:#e9e9e9;stroke-opacity:1">
      <g
         id="g7"
         style="stroke:#e9e9e9;stroke-opacity:1">
        <path
           id="rect3"
           style="fill:#e7e7e7;fill-opacity:1;stroke:#e9e9e9;stroke-width:1.56445;stroke-linecap:round;stroke-linejoin:round;stroke-dasharray:none;stroke-opacity:1"
           d="m 109.67564,64.857415 h 5.98819 l -5.98819,5.988174 z"
           sodipodi:nodetypes="cccc" />
        <path
           id="path3"
           style="fill:#e7e7e7;fill-opacity:1;stroke:#e9e9e9;stroke-width:1.56445;stroke-linecap:round;stroke-linejoin:round;stroke-dasharray:none;stroke-opacity:1"
           d="m 135.49416,50.35774 v 5.988173 h -5.98818 z"
           sodipodi:nodetypes="cccc" />
        <g
           id="g3"
           style="stroke-width:0.265814;stroke-dasharray:none;stroke:#e9e9e9;stroke-opacity:1">
          <path
             id="path2"
             style="fill:none;stroke:#e9e9e9;stroke-width:2.242;stroke-linecap:round;stroke-linejoin:round;stroke-dasharray:none;stroke-opacity:1"
             d="m 110.22263,60.739921 c 0,-6.75143 5.47311,-12.224552 12.22453,-12.224553 3.37572,0 6.43187,1.368275 8.64407,3.580488 1.1061,1.106104 2.00122,2.42319 2.61981,3.885715 m 0.96067,4.758346 c 0,6.751429 -5.47312,12.224543 -12.22454,12.224539 -3.37572,-2e-6 -6.43185,-1.368273 -8.64406,-3.580485 -1.1061,-1.106103 -2.00122,-2.423187 -2.61981,-3.88571"
             sodipodi:nodetypes="cssccssc" />
        </g>
      </g>
    </g>
    <g
       id="g6"
       transform="matrix(1.580184,0,0,1.580184,-71.965346,-34.906089)"
       style="stroke-width:0.265814;stroke-dasharray:none">
      <path
         id="path866"
         style="fill:#000000;fill-opacity:1;stroke:#000000;stroke-width:0.265814;stroke-miterlimit:4;stroke-dasharray:none;stroke-opacity:1"
         d="m 119.64775,63.726324 c 0.0622,-0.0968 0.16947,-0.133723 0.21823,-0.09518 l 0.76809,0.607044 c 0.0487,0.03854 0.0377,0.151452 -0.0422,0.234324 -1.5488,1.588426 -1.99927,0.925891 -0.94414,-0.746182 z"
         sodipodi:nodetypes="cssccc" />
      <path
         id="rect850"
         style="fill:#dfdfdf;fill-opacity:1;stroke:#000000;stroke-width:0.265814;stroke-miterlimit:4;stroke-dasharray:none;stroke-opacity:1"
         d="m 120.40235,62.055274 c -0.0277,0.03515 -0.0382,0.07683 -0.0386,0.118237 -0.28273,0.435843 -0.65952,0.906526 -0.65191,1.322589 l -0.40494,0.512366 c -0.10532,0.133251 -0.0828,0.325409 0.0505,0.430723 l 0.59231,0.468114 c 0.13324,0.105313 0.3254,0.0828 0.43071,-0.05044 l 0.38498,-0.487095 c 0.43209,-0.06424 0.78752,-0.594785 1.1713,-0.961529 0.0373,-0.01084 0.0724,-0.02971 0.0984,-0.06254 1.84988,-2.330879 3.71187,-4.696601 5.56377,-7.039806 0.0663,-0.084 0.0522,-0.20507 -0.0318,-0.271452 l -1.32953,-1.050762 c -0.084,-0.06638 -0.20506,-0.0522 -0.27144,0.03178 z"
         sodipodi:nodetypes="sccssssccscssss" />
    </g>
  </g>
</svg>
