<?xml version="1.0" encoding="UTF-8" standalone="no"?>
<svg
   width="37.252148mm"
   height="46.80201mm"
   viewBox="0 0 37.252147 46.802009"
   version="1.1"
   id="svg8"
   inkscape:export-filename="C:\Users\ninal\Desktop\quill.png"
   inkscape:export-xdpi="96"
   inkscape:export-ydpi="96"
   inkscape:version="1.4 (86a8ad7, 2024-10-11)"
   sodipodi:docname="nonePen.svg"
   xmlns:inkscape="http://www.inkscape.org/namespaces/inkscape"
   xmlns:sodipodi="http://sodipodi.sourceforge.net/DTD/sodipodi-0.dtd"
   xmlns="http://www.w3.org/2000/svg"
   xmlns:svg="http://www.w3.org/2000/svg"
   xmlns:rdf="http://www.w3.org/1999/02/22-rdf-syntax-ns#"
   xmlns:cc="http://creativecommons.org/ns#"
   xmlns:dc="http://purl.org/dc/elements/1.1/">
  <defs
     id="defs2" />
  <sodipodi:namedview
     id="base"
     pagecolor="#ffffff"
     bordercolor="#666666"
     borderopacity="1.0"
     inkscape:pageopacity="0.0"
     inkscape:pageshadow="2"
     inkscape:zoom="1.9912127"
     inkscape:cx="52.982788"
     inkscape:cy="117.76743"
     inkscape:document-units="mm"
     inkscape:current-layer="layer1"
     inkscape:document-rotation="0"
     showgrid="false"
     inkscape:window-width="1920"
     inkscape:window-height="1017"
     inkscape:window-x="-8"
     inkscape:window-y="-8"
     inkscape:window-maximized="1"
     inkscape:showpageshadow="2"
     inkscape:pagecheckerboard="0"
     inkscape:deskcolor="#d1d1d1" />
  <metadata
     id="metadata5">
    <rdf:RDF>
      <cc:Work
         rdf:about="">
        <dc:format>image/svg+xml</dc:format>
        <dc:type
           rdf:resource="http://purl.org/dc/dcmitype/StillImage" />
        <dc:title />
      </cc:Work>
    </rdf:RDF>
  </metadata>
  <g
     inkscape:label="Layer 1"
     inkscape:groupmode="layer"
     id="layer1"
     transform="translate(-103.01274,-37.415283)">
    <g
       id="g34"
       style="fill:#878787;fill-opacity:1;stroke:#000000;stroke-opacity:1">
      <path
         id="path866"
         style="fill:#878787;fill-opacity:1;stroke:#000000;stroke-width:0.65155;stroke-opacity:1;paint-order:normal"
         d="m 110.98391,72.290294 c 0.12899,-0.20074 0.35144,-0.27731 0.45257,-0.197377 l 1.59285,1.258874 c 0.10114,0.07993 0.0781,0.314079 -0.0875,0.485937 -3.21186,3.294049 -4.14604,1.920096 -1.95793,-1.547417 z"
         sodipodi:nodetypes="cssccc" />
      <path
         id="rect850"
         style="fill:#878787;fill-opacity:1;stroke:#000000;stroke-width:0.65155;stroke-opacity:1;paint-order:normal"
         d="m 112.54878,68.824903 c -0.0576,0.0729 -0.0792,0.159319 -0.08,0.245197 -0.58632,0.903844 -1.36772,1.879939 -1.35194,2.742762 l -0.83975,1.062535 c -0.2184,0.276334 -0.17173,0.674828 0.10461,0.893224 l 1.2283,0.970768 c 0.27634,0.218395 0.67483,0.171727 0.89322,-0.104607 l 0.79834,-1.01013 c 0.89609,-0.133219 1.63315,-1.233455 2.42905,-1.994 0.0772,-0.02248 0.15011,-0.06162 0.20414,-0.129692 3.83628,-4.833733 7.69761,-9.739725 11.53806,-14.59902 0.13767,-0.174182 0.10826,-0.42527 -0.0659,-0.562932 l -2.75714,-2.179051 c -0.17418,-0.137661 -0.42527,-0.108256 -0.56293,0.06593 z"
         sodipodi:nodetypes="sccssssccscssss" />
      <rect
         style="fill:#878787;fill-opacity:1;stroke:#000000;stroke-width:0.65155;stroke-opacity:1;paint-order:normal"
         id="rect854"
         width="1.6512928"
         height="0.83755249"
         x="42.84782"
         y="130.29442"
         rx="0.029047271"
         ry="0.83755249"
         transform="rotate(-51.67957)" />
      <rect
         style="fill:#878787;fill-opacity:1;stroke:#000000;stroke-width:0.65155;stroke-opacity:1;paint-order:normal"
         id="rect856"
         width="8.190608"
         height="0.42614108"
         x="34.946407"
         y="130.44376"
         rx="0.026559601"
         ry="0.42614108"
         transform="rotate(-51.67957)" />
      <rect
         style="fill:#878787;fill-opacity:1;stroke:#000000;stroke-width:0.65155;stroke-opacity:1;paint-order:normal"
         id="rect852"
         width="10.637383"
         height="4.0339375"
         x="34.103233"
         y="131.10214"
         ry="2.0169687"
         rx="0.28574449"
         transform="rotate(-51.67957)" />
    </g>
    <path
       id="rect34"
       style="fill:#9f9f9f;stroke:#d70000;stroke-width:1.81475;stroke-linecap:round;stroke-dasharray:none;stroke-opacity:1"
       d="m 123.43853,58.688808 -14.2648,-14.264789 m 0,14.264789 14.2648,-14.264789"
       sodipodi:nodetypes="cccc" />
  </g>
</svg>
