<?xml version="1.0" encoding="UTF-8" standalone="no"?>
<svg
   xmlns:dc="http://purl.org/dc/elements/1.1/"
   xmlns:cc="http://creativecommons.org/ns#"
   xmlns:rdf="http://www.w3.org/1999/02/22-rdf-syntax-ns#"
   xmlns:svg="http://www.w3.org/2000/svg"
   xmlns="http://www.w3.org/2000/svg"
   xmlns:sodipodi="http://sodipodi.sourceforge.net/DTD/sodipodi-0.dtd"
   xmlns:inkscape="http://www.inkscape.org/namespaces/inkscape"
   width="37.252148mm"
   height="46.80201mm"
   viewBox="0 0 37.252147 46.802009"
   version="1.1"
   id="svg8"
   inkscape:export-filename="C:\Users\ninal\Desktop\quill.png"
   inkscape:export-xdpi="96"
   inkscape:export-ydpi="96"
   inkscape:version="1.0.2 (e86c870879, 2021-01-15)"
   sodipodi:docname="pen.svg">
  <defs
     id="defs2" />
  <sodipodi:namedview
     id="base"
     pagecolor="#ffffff"
     bordercolor="#666666"
     borderopacity="1.0"
     inkscape:pageopacity="0.0"
     inkscape:pageshadow="2"
     inkscape:zoom="1.9912127"
     inkscape:cx="-30.438678"
     inkscape:cy="104.77266"
     inkscape:document-units="mm"
     inkscape:current-layer="layer1"
     inkscape:document-rotation="0"
     showgrid="false"
     inkscape:window-width="1920"
     inkscape:window-height="1017"
     inkscape:window-x="-8"
     inkscape:window-y="-8"
     inkscape:window-maximized="1" />
  <metadata
     id="metadata5">
    <rdf:RDF>
      <cc:Work
         rdf:about="">
        <dc:format>image/svg+xml</dc:format>
        <dc:type
           rdf:resource="http://purl.org/dc/dcmitype/StillImage" />
        <dc:title />
      </cc:Work>
    </rdf:RDF>
  </metadata>
  <g
     inkscape:label="Layer 1"
     inkscape:groupmode="layer"
     id="layer1"
     transform="translate(-103.01274,-37.415283)">
    <path
       id="path866"
       style="fill:#000000;fill-opacity:1;stroke:#000000;stroke-width:0.499999;stroke-miterlimit:4;stroke-dasharray:none;stroke-opacity:1"
       d="m 105.2553,78.431352 c 0.19798,-0.308097 0.53939,-0.425616 0.69461,-0.302935 l 2.4447,1.932122 c 0.15523,0.122683 0.11986,0.482048 -0.13424,0.745816 -4.92957,5.05571 -6.36335,2.946966 -3.00504,-2.374977 z"
       sodipodi:nodetypes="cssccc" />
    <path
       id="rect850"
       style="fill:#dfdfdf;fill-opacity:1;stroke:#000000;stroke-width:0.5;stroke-miterlimit:4;stroke-dasharray:none;stroke-opacity:1"
       d="m 107.65707,73.112665 c -0.0884,0.111883 -0.12164,0.244523 -0.12275,0.376329 -0.89988,1.387221 -2.09917,2.885332 -2.07495,4.209595 l -1.28885,1.630779 c -0.3352,0.424118 -0.26357,1.035727 0.16055,1.370921 l 1.8852,1.489936 c 0.42412,0.335194 1.03573,0.263567 1.37092,-0.160551 l 1.22529,-1.550348 c 1.37531,-0.204465 2.50656,-1.893108 3.7281,-3.060394 0.11852,-0.0345 0.2304,-0.09457 0.31332,-0.199051 5.88793,-7.418819 11.8143,-14.948541 17.70863,-22.406594 0.21129,-0.267335 0.16616,-0.652704 -0.10118,-0.863988 l -4.23165,-3.34441 c -0.26734,-0.211283 -0.65271,-0.166152 -0.86399,0.101183 z"
       sodipodi:nodetypes="sccssssccscssss" />
    <rect
       style="fill:#000000;fill-opacity:1;stroke:none;stroke-width:0.542158;stroke-miterlimit:4;stroke-dasharray:none;stroke-opacity:1"
       id="rect854"
       width="2.5344062"
       height="1.2854766"
       x="50.92128"
       y="128.75063"
       rx="0.044581786"
       ry="1.2854766"
       transform="rotate(-51.67957)" />
    <rect
       style="fill:#000000;fill-opacity:1;stroke:none;stroke-width:0.492631;stroke-miterlimit:4;stroke-dasharray:none;stroke-opacity:1"
       id="rect856"
       width="12.570955"
       height="0.65404183"
       x="38.794182"
       y="128.97983"
       rx="0.040763706"
       ry="0.65404183"
       transform="rotate(-51.67957)" />
    <rect
       style="fill:#000000;fill-opacity:1;stroke:none;stroke-width:0.499999;stroke-miterlimit:4;stroke-dasharray:none"
       id="rect852"
       width="16.326267"
       height="6.1912923"
       x="37.500076"
       y="129.99033"
       ry="3.0956461"
       rx="0.43856099"
       transform="rotate(-51.67957)" />
  </g>
</svg>
