<?xml version="1.0" encoding="UTF-8" standalone="no"?>
<svg
   width="20.941479mm"
   height="19.665724mm"
   viewBox="0 0 20.941478 19.665723"
   version="1.1"
   id="svg8"
   inkscape:export-filename="favicon.png"
   inkscape:export-xdpi="96"
   inkscape:export-ydpi="96"
   inkscape:version="1.4 (86a8ad7, 2024-10-11)"
   sodipodi:docname="traceIcon.svg"
   xmlns:inkscape="http://www.inkscape.org/namespaces/inkscape"
   xmlns:sodipodi="http://sodipodi.sourceforge.net/DTD/sodipodi-0.dtd"
   xmlns="http://www.w3.org/2000/svg"
   xmlns:svg="http://www.w3.org/2000/svg"
   xmlns:rdf="http://www.w3.org/1999/02/22-rdf-syntax-ns#"
   xmlns:cc="http://creativecommons.org/ns#"
   xmlns:dc="http://purl.org/dc/elements/1.1/">
  <defs
     id="defs2" />
  <sodipodi:namedview
     id="base"
     pagecolor="#ffffff"
     bordercolor="#666666"
     borderopacity="1.0"
     inkscape:pageopacity="0.0"
     inkscape:pageshadow="2"
     inkscape:zoom="2.816"
     inkscape:cx="42.258523"
     inkscape:cy="111.68324"
     inkscape:document-units="mm"
     inkscape:current-layer="layer1"
     inkscape:document-rotation="0"
     showgrid="false"
     inkscape:window-width="1147"
     inkscape:window-height="1017"
     inkscape:window-x="952"
     inkscape:window-y="-8"
     inkscape:window-maximized="0"
     inkscape:showpageshadow="2"
     inkscape:pagecheckerboard="0"
     inkscape:deskcolor="#d1d1d1" />
  <metadata
     id="metadata5">
    <rdf:RDF>
      <cc:Work
         rdf:about="">
        <dc:format>image/svg+xml</dc:format>
        <dc:type
           rdf:resource="http://purl.org/dc/dcmitype/StillImage" />
        <dc:title />
      </cc:Work>
    </rdf:RDF>
  </metadata>
  <g
     inkscape:label="Layer 1"
     inkscape:groupmode="layer"
     id="layer1"
     transform="translate(-109.94745,-53.154228)">
    <path
       style="fill:none;fill-opacity:1;stroke:#c0c0c0;stroke-width:2.9;stroke-linecap:round;stroke-linejoin:round;stroke-dasharray:none;stroke-dashoffset:0;stroke-opacity:1"
       d="m 111.81713,71.369953 c 0,0 -2.39176,-17.539562 4.25202,-16.742309 6.64377,0.797253 3.45476,5.315019 2.79038,7.573902 -0.66438,2.258883 -3.98626,10.098536 2.92326,8.902656 6.90953,-1.195879 8.76978,-6.245147 7.0424,-15.147803"
       id="path3"
       sodipodi:nodetypes="csssc"
       transform="translate(-2.5416666e-6)" />
    <path
       style="fill:none;fill-opacity:1;stroke:#000000;stroke-width:0.4;stroke-linecap:round;stroke-linejoin:round;stroke-dasharray:1.2, 1.2;stroke-dashoffset:0;stroke-opacity:1"
       d="m 111.81713,71.369953 c 0,0 -2.39176,-17.539562 4.25202,-16.742309 6.64377,0.797253 3.45476,5.315019 2.79038,7.573902 -0.66438,2.258883 -3.98626,10.098536 2.92326,8.902656 6.90953,-1.195879 8.76978,-6.245147 7.0424,-15.147803"
       id="path2"
       sodipodi:nodetypes="csssc" />
    <path
       style="fill:none;fill-opacity:1;stroke:#000000;stroke-width:0.7;stroke-linecap:round;stroke-linejoin:round;stroke-opacity:1"
       d="m 111.81713,71.369953 c 0,0 -2.39176,-17.539562 4.25202,-16.742309 6.64377,0.797253 3.45476,5.315019 2.79038,7.573902 -0.38049,1.293663 -1.6326,4.417738 -1.33532,6.626736"
       id="path1"
       sodipodi:nodetypes="cssc" />
    <g
       id="g1"
       transform="matrix(0.54432082,0,0,0.54432082,56.87603,29.915191)">
      <path
         id="path866"
         style="fill:#000000;fill-opacity:1;stroke:#000000;stroke-width:0.409066;stroke-miterlimit:4;stroke-dasharray:none;stroke-opacity:1"
         d="m 113.91341,68.27106 c 0.16197,-0.252065 0.44129,-0.348211 0.56828,-0.247842 l 2.00009,1.580735 c 0.127,0.100371 0.0981,0.394379 -0.10982,0.610177 -4.03305,4.136247 -5.20608,2.411012 -2.45853,-1.943049 z"
         sodipodi:nodetypes="cssccc" />
      <path
         id="rect850"
         style="fill:#dfdfdf;fill-opacity:1;stroke:#000000;stroke-width:0.409067;stroke-miterlimit:4;stroke-dasharray:none;stroke-opacity:1"
         d="m 115.87838,63.919663 c -0.0723,0.09153 -0.0995,0.200052 -0.10043,0.307887 -0.73622,1.134932 -1.7174,2.360587 -1.69759,3.444012 l -1.05445,1.334195 c -0.27424,0.346985 -0.21563,0.847363 0.13135,1.121597 l 1.54235,1.218967 c 0.34699,0.274233 0.84736,0.215633 1.12159,-0.131353 l 1.00246,-1.268392 c 1.12518,-0.167279 2.0507,-1.548815 3.05008,-2.503811 0.097,-0.02823 0.1885,-0.07737 0.25634,-0.162851 4.81711,-6.069586 9.66568,-12.229905 14.48803,-18.33159 0.17286,-0.218716 0.13594,-0.533999 -0.0828,-0.706858 l -3.46206,-2.736174 c -0.21872,-0.172858 -0.534,-0.135935 -0.70686,0.08278 z"
         sodipodi:nodetypes="sccssssccscssss" />
    </g>
  </g>
</svg>
